<?xml version="1.0" encoding="UTF-8" standalone="no"?> <svg xmlns="http://www.w3.org/2000/svg" viewBox="0 0 64 64"><title>1</title><g id="Layer_61" data-name="Layer 61"><path d="M54.89,12.6H42.67v-.93A9.68,9.68,0,0,0,33,2H30.61a9.68,9.68,0,0,0-9.67,9.67v.93H9.11a2,2,0,0,0,0,4H11.6V56.54A5.46,5.46,0,0,0,17.06,62h29.5A5.46,5.46,0,0,0,52,56.54V16.6h2.88a2,2,0,0,0,0-4Zm-30-.93A5.67,5.67,0,0,1,30.61,6H33a5.67,5.67,0,0,1,5.67,5.67v.93H24.94ZM48,56.54A1.46,1.46,0,0,1,46.56,58H17.06a1.46,1.46,0,0,1-1.46-1.46V16.6H48Z"/><path d="M22.94,20.85a2,2,0,0,0-2,2v28.9a2,2,0,0,0,4,0V22.85A2,2,0,0,0,22.94,20.85Z"/><path d="M31.81,20.85a2,2,0,0,0-2,2v28.9a2,2,0,0,0,4,0V22.85A2,2,0,0,0,31.81,20.85Z"/><path d="M38.67,22.85v28.9a2,2,0,0,0,4,0V22.85a2,2,0,0,0-4,0Z"/></g></svg>